<?xml version="1.0" encoding="UTF-8" standalone="no"?>
<!-- Created with Inkscape (http://www.inkscape.org/) -->

<svg
   version="1.1"
   id="svg560"
   width="225"
   height="225"
   viewBox="0 0 225 225"
   sodipodi:docname="bash_logo.svg"
   inkscape:version="1.2.1 (9c6d41e, 2022-07-14)"
   inkscape:export-filename="Bash.png"
   inkscape:export-xdpi="96"
   inkscape:export-ydpi="96"
   xmlns:inkscape="http://www.inkscape.org/namespaces/inkscape"
   xmlns:sodipodi="http://sodipodi.sourceforge.net/DTD/sodipodi-0.dtd"
   xmlns="http://www.w3.org/2000/svg"
   xmlns:svg="http://www.w3.org/2000/svg">
  <defs
     id="defs564" />
  <sodipodi:namedview
     id="namedview562"
     pagecolor="#ffffff"
     bordercolor="#000000"
     borderopacity="0.25"
     inkscape:showpageshadow="2"
     inkscape:pageopacity="0.0"
     inkscape:pagecheckerboard="0"
     inkscape:deskcolor="#d1d1d1"
     showgrid="false"
     inkscape:zoom="1.741054"
     inkscape:cx="-35.32343"
     inkscape:cy="116.02167"
     inkscape:window-width="1600"
     inkscape:window-height="798"
     inkscape:window-x="0"
     inkscape:window-y="27"
     inkscape:window-maximized="1"
     inkscape:current-layer="g566" />
  <g
     inkscape:groupmode="layer"
     inkscape:label="Image"
     id="g566">
    <rect
       style="fill:#ffffff;fill-opacity:1;stroke-width:8.04858;stroke-linecap:square;stroke-linejoin:round;stop-color:#000000"
       id="rect1861"
       width="227.74075"
       height="225"
       x="2.220446e-15"
       y="0" />
    <g
       id="g1859"
       transform="translate(0,6.0845934)">
      <path
         style="fill:#000000"
         d="m 107.63121,193.11554 c -6.14461,-2.79444 -59.878695,-34.92216 -62.714265,-37.49699 -1.58185,-1.4364 -3.70947,-4.41164 -4.72803,-6.61164 -1.70085,-3.67366 -1.85373,-7.16949 -1.8739,-42.84886 -0.024,-42.446194 -0.0166,-42.506644 5.95556,-48.471584 2.95941,-2.95585 59.402485,-36.71887 64.152915,-38.37487 1.6367,-0.57056 5.53941,-0.84658 8.67268,-0.61338 5.28367,0.39324 7.87279,1.71299 35.69687,18.19571 31.75633,18.81216 36.33739,22.3702 38.4157,29.83692 0.84988,3.05337 1.10358,14.99881 0.88725,41.776074 l -0.30295,37.49999 -2.76045,4.6959 c -3.07764,5.23548 -3.8564,5.75913 -43.46725,29.22776 -21.33824,12.64248 -23.69725,13.79697 -29,14.19242 -3.73654,0.27866 -6.88741,-0.0767 -8.93413,-1.00745 z m 8.06682,-4.71362 c -1.80248,-1.99171 -1.90499,-4.1357 -1.90499,-39.842 v -37.73701 l 2.52791,-3.278 c 3.23705,-4.19756 62.34962,-41.037994 65.84779,-41.037994 1.35675,0 3.34956,0.7875 4.42846,1.75 1.90097,1.69587 1.939,1.67267 1.22964,-0.75 -1.74951,-5.97514 -6.19708,-9.30497 -36.41495,-27.26336 -35.25117,-20.94967 -35.8454,-21.15503 -45.75982,-15.81355 -3.22246,1.73614 -17.992295,10.45118 -32.821855,19.36676 -24.98661,15.02203 -27.13048,16.53318 -29.25,20.61743 -2.26386,4.36237 -2.28694,4.78528 -2.2652,41.500004 0.02,33.84764 0.18265,37.44265 1.85876,41.09271 1.01025,2.2 2.68787,4.753 3.72804,5.67334 1.04018,0.92034 15.60488,9.80784 32.366,19.75 25.625065,15.19998 31.100205,18.07666 34.404975,18.07666 h 3.93023 z m 22.86844,-27.73423 c -0.12462,-1.11618 1.33788,-4.3542 3.25,-7.19559 2.59963,-3.86304 3.47657,-6.2277 3.47657,-9.37455 0,-5.66344 -1.77992,-7.79354 -7.10627,-8.50431 -3.5356,-0.47182 -4.45457,-1.01376 -4.70522,-2.77484 -0.40276,-2.82972 3.09266,-6.31149 6.33624,-6.31149 1.79002,0 2.80856,-0.74647 3.5,-2.5651 1.53191,-4.02924 1.21182,-4.69662 -2.02475,-4.22159 -2.75463,0.40429 -3,0.19913 -3,-2.50846 0,-2.83145 -0.0895,-2.88968 -2.25,-1.46338 -1.2375,0.81697 -2.39598,2.70901 -2.57439,4.20453 -0.17841,1.49553 -1.64091,4.79509 -3.25,7.33235 -3.16431,4.9896 -3.83991,10.58902 -1.64052,13.59685 0.71814,0.98212 3.18267,2.01198 5.58635,2.33438 4.67012,0.6264 5.6938,1.90219 4.70082,5.85855 -0.69166,2.75578 -6.33266,5.84478 -8.88494,4.86538 -0.90277,-0.34643 -1.65073,0.29813 -2.04224,1.75993 -1.12622,4.20496 -0.76889,4.80656 2.85492,4.80656 3.11008,0 3.5,0.2921 3.5,2.62197 0,2.50482 0.10053,2.55375 2.25,1.09511 1.29615,-0.87958 2.15395,-2.38721 2.02343,-3.5563 z"
         id="path570" />
      <rect
         style="fill:#4ca825;fill-opacity:1;stroke-width:11.5498;stroke-linecap:square;stroke-linejoin:round;stop-color:#000000"
         id="rect1855"
         width="19.714531"
         height="4.6318331"
         x="176.33652"
         y="236.88472"
         transform="matrix(0.85748689,-0.51450581,0,1,0,0)" />
    </g>
  </g>
</svg>
